<svg width="40" height="40" viewBox="0 0 40 40" fill="none" xmlns="http://www.w3.org/2000/svg">
<g clip-path="url(#clip0_51_111)">
<path d="M19.9999 0C8.95388 0 -0.00012207 8.954 -0.00012207 20C-0.00012207 31.046 8.95388 40 19.9999 40C31.0459 40 39.9999 31.046 39.9999 20C39.9999 8.954 31.0459 0 19.9999 0ZM15.08 12C16.185 12 17.08 12.895 17.08 14V26C17.08 27.105 16.185 28 15.08 28C13.975 28 13.08 27.105 13.08 26V14C13.08 12.895 13.975 12 15.08 12ZM25.08 12C26.185 12 27.08 12.895 27.08 14V26C27.08 27.105 26.185 28 25.08 28C23.975 28 23.08 27.105 23.08 26V14C23.08 12.895 23.975 12 25.08 12Z" fill="white"/>
</g>
<defs>
<clipPath id="clip0_51_111">
<rect width="40" height="40" fill="white"/>
</clipPath>
</defs>
</svg>
