<svg width="15" height="13" viewBox="0 0 15 13" fill="none" xmlns="http://www.w3.org/2000/svg">
<path fill-rule="evenodd" clip-rule="evenodd" d="M1.42007 9.80762C1.46206 9.84955 1.50869 9.88214 1.55801 9.90583C1.62624 9.93854 1.69973 9.95429 1.77334 9.95429C1.78847 9.95429 1.80361 9.95362 1.81863 9.95227C1.82876 9.95136 1.83889 9.9502 1.84902 9.94867C1.88918 9.94269 1.92886 9.93195 1.96706 9.91645C1.99844 9.90369 2.02895 9.8877 2.05801 9.86847C2.08193 9.8526 2.105 9.83454 2.12673 9.81427C2.31997 9.62091 2.31997 9.30091 2.12673 9.10761C1.40005 8.38092 1.00002 7.41425 1.00002 6.39429C1.00002 5.58332 1.25173 4.8299 1.68081 4.20868L0.889793 3.58728C0.32949 4.37854 2.20006e-05 5.34497 2.20006e-05 6.38758C2.20006e-05 7.67426 0.506736 8.88758 1.42007 9.80762ZM4.2228 2.59638C4.42165 2.56427 4.62563 2.54761 4.8334 2.54761L10.1267 2.56092C10.3334 2.56092 10.52 2.43427 10.5934 2.24762C10.6666 2.06092 10.62 1.84095 10.4734 1.70093L8.8467 0.140934C8.64663 -0.0524252 8.3334 -0.0457114 8.14004 0.15424C7.94668 0.354252 7.95339 0.667607 8.15334 0.860905L8.88003 1.55426L4.8334 1.54096C4.27102 1.54096 3.73086 1.63764 3.22854 1.81531L4.2228 2.59638Z" fill="white"/>
<path fill-rule="evenodd" clip-rule="evenodd" d="M5.48659 12.861C5.58657 12.9543 5.70656 13.0009 5.83327 13.0009C5.96657 13.0009 6.09328 12.9476 6.19997 12.8409C6.39321 12.6409 6.38662 12.3276 6.18655 12.1343L5.45986 11.4409L9.50661 11.4543C9.92226 11.4543 10.3257 11.4015 10.7107 11.3022L9.62881 10.4523L9.57961 10.4536C9.55532 10.454 9.53103 10.4543 9.50661 10.4543L4.20656 10.4409C4.00661 10.4676 3.81997 10.5676 3.73989 10.7543C3.66653 10.9409 3.71328 11.161 3.85989 11.301L5.48659 12.861ZM13.2417 9.68134C13.9278 8.84443 14.3399 7.77362 14.3399 6.60761C14.3399 5.32093 13.8333 4.10761 12.9199 3.18763C12.7266 2.99427 12.4066 2.99427 12.2133 3.18763C12.0199 3.38092 12.0199 3.70093 12.2133 3.89429C12.94 4.62091 13.3399 5.58759 13.3399 6.60761C13.3399 7.53998 13.0072 8.39624 12.4547 9.06305L13.2417 9.68134Z" fill="white"/>
<path d="M0.223612 1.96201C-0.0343035 1.75941 -0.0791391 1.38608 0.12347 1.12816C0.326079 0.870245 0.699408 0.825411 0.957323 1.02802L13.4908 10.8739C13.7488 11.0765 13.7936 11.4498 13.591 11.7078C13.3884 11.9657 13.015 12.0105 12.7571 11.8079L0.223612 1.96201Z" fill="white"/>
</svg>
