<svg width="15" height="13" viewBox="0 0 15 13" fill="none" xmlns="http://www.w3.org/2000/svg">
<path d="M1.77333 9.95426C1.64667 9.95426 1.52 9.9076 1.42 9.8076C0.506667 8.8876 0 7.67426 0 6.3876C0 3.71426 2.16667 1.54093 4.83333 1.54093L8.88 1.55426L8.15333 0.860929C7.95333 0.667595 7.94667 0.354262 8.14 0.154262C8.33333 -0.045738 8.64667 -0.0524047 8.84667 0.140929L10.4733 1.70093C10.62 1.84093 10.6667 2.06093 10.5933 2.2476C10.52 2.43426 10.3333 2.56093 10.1267 2.56093L4.83333 2.5476C2.72 2.5476 1 4.27426 1 6.39426C1 7.41426 1.4 8.38093 2.12667 9.1076C2.32 9.30093 2.32 9.62093 2.12667 9.81426C2.02667 9.9076 1.9 9.95426 1.77333 9.95426Z" fill="white"/>
<path d="M5.83323 13.0009C5.70656 13.0009 5.58656 12.9543 5.48656 12.8609L3.85989 11.3009C3.71323 11.1609 3.66656 10.9409 3.73989 10.7543C3.81989 10.5676 4.00656 10.4676 4.20656 10.4409L9.50656 10.4543C11.6199 10.4543 13.3399 8.7276 13.3399 6.6076C13.3399 5.5876 12.9399 4.62094 12.2132 3.89427C12.0199 3.70094 12.0199 3.38094 12.2132 3.1876C12.4066 2.99427 12.7266 2.99427 12.9199 3.1876C13.8332 4.1076 14.3399 5.32094 14.3399 6.6076C14.3399 9.28094 12.1732 11.4543 9.50656 11.4543L5.45989 11.4409L6.18656 12.1343C6.38656 12.3276 6.39323 12.6409 6.19989 12.8409C6.09323 12.9476 5.96656 13.0009 5.83323 13.0009Z" fill="white"/>
</svg>
