<svg width="16" height="14" viewBox="0 0 16 14" fill="none" xmlns="http://www.w3.org/2000/svg">
<path d="M2.60671 10.4533C2.48004 10.4533 2.35337 10.4067 2.25337 10.3067C1.34004 9.38668 0.833374 8.17335 0.833374 6.88668C0.833374 4.21335 3.00004 2.04001 5.66671 2.04001L9.71337 2.05335L8.98671 1.36001C8.78671 1.16668 8.78004 0.853346 8.97337 0.653346C9.16671 0.453346 9.48004 0.44668 9.68004 0.640013L11.3067 2.20001C11.4534 2.34001 11.5 2.56001 11.4267 2.74668C11.3534 2.93335 11.1667 3.06001 10.96 3.06001L5.66671 3.04668C3.55337 3.04668 1.83337 4.77335 1.83337 6.89335C1.83337 7.91335 2.23337 8.88001 2.96004 9.60668C3.15337 9.80001 3.15337 10.12 2.96004 10.3133C2.86004 10.4067 2.73337 10.4533 2.60671 10.4533Z" fill="white"/>
<path d="M6.66671 13.5C6.54004 13.5 6.42004 13.4534 6.32004 13.36L4.69337 11.8C4.54671 11.66 4.50004 11.44 4.57337 11.2534C4.65337 11.0667 4.84004 10.9667 5.04004 10.94L10.34 10.9534C12.4534 10.9534 14.1734 9.22669 14.1734 7.10669C14.1734 6.08669 13.7734 5.12002 13.0467 4.39335C12.8534 4.20002 12.8534 3.88002 13.0467 3.68669C13.24 3.49335 13.56 3.49335 13.7534 3.68669C14.6667 4.60669 15.1734 5.82002 15.1734 7.10669C15.1734 9.78002 13.0067 11.9534 10.34 11.9534L6.29337 11.94L7.02004 12.6334C7.22004 12.8267 7.22671 13.14 7.03337 13.34C6.92671 13.4467 6.80004 13.5 6.66671 13.5Z" fill="white"/>
<path d="M8.16671 9.28003C7.89337 9.28003 7.66671 9.05336 7.66671 8.78003V6.52003L7.54004 6.66003C7.35337 6.86669 7.04004 6.88003 6.83337 6.70003C6.62671 6.52003 6.61337 6.20003 6.79337 5.99336L7.79337 4.88003C7.93337 4.72669 8.15337 4.67336 8.34671 4.74669C8.54004 4.82669 8.66671 5.00669 8.66671 5.22003V8.78669C8.66671 9.06003 8.44004 9.28003 8.16671 9.28003Z" fill="white"/>
</svg>
