<svg width="13" height="12" viewBox="0 0 13 12" fill="none" xmlns="http://www.w3.org/2000/svg">
<path d="M13.0002 9.7983C13.0002 9.78497 12.9935 9.77163 12.9935 9.7583C12.9869 9.70497 12.9802 9.65163 12.9602 9.60497C12.9335 9.54497 12.9002 9.4983 12.8602 9.45163C12.8602 9.45163 12.8602 9.44497 12.8535 9.44497C12.8069 9.3983 12.7535 9.36497 12.6935 9.3383C12.6335 9.31163 12.5669 9.2983 12.5002 9.2983L0.499545 9.29833C0.230486 9.29833 2.03161e-08 9.5 0.000122119 9.79833C0.000122119 10.0759 0.222656 10.2984 0.500178 10.2983C4.71525 10.3009 11.2935 10.305 11.2935 10.305L10.8202 10.7783C10.6269 10.9716 10.6269 11.2916 10.8202 11.485C10.9202 11.585 11.0469 11.6316 11.1735 11.6316C11.3002 11.6316 11.4269 11.585 11.5269 11.485L12.8602 10.1516C12.9069 10.105 12.9402 10.0516 12.9669 9.99163C12.9869 9.92497 13.0002 9.8583 13.0002 9.7983Z" fill="white"/>
<path d="M13.0002 1.83335C13.0002 1.84669 12.9935 1.86002 12.9935 1.87335C12.9869 1.92669 12.9802 1.98002 12.9602 2.02669C12.9335 2.08669 12.9002 2.13335 12.8602 2.18002C12.8602 2.18002 12.8602 2.18669 12.8535 2.18669C12.8069 2.23335 12.7535 2.26669 12.6935 2.29335C12.6335 2.32002 12.5669 2.33335 12.5002 2.33335L0.499545 2.33332C0.230486 2.33332 2.03161e-08 2.13165 0.000122119 1.83332C0.000122119 1.5558 0.222656 1.33329 0.500178 1.33332C4.71525 1.33073 11.2935 1.32669 11.2935 1.32669L10.8202 0.853353C10.6269 0.660019 10.6269 0.34002 10.8202 0.146687C10.9202 0.0466865 11.0469 2.00309e-05 11.1735 2.00309e-05C11.3002 2.00309e-05 11.4269 0.0466865 11.5269 0.146687L12.8602 1.48002C12.9069 1.52669 12.9402 1.58002 12.9669 1.64002C12.9869 1.70669 13.0002 1.77335 13.0002 1.83335Z" fill="white"/>
</svg>
