<svg width="14" height="12" viewBox="0 0 14 12" fill="none" xmlns="http://www.w3.org/2000/svg">
<path d="M13.5 9.98665C13.5 9.97332 13.4934 9.95999 13.4934 9.94665C13.4867 9.89332 13.48 9.83999 13.46 9.79332C13.4334 9.73332 13.4 9.68665 13.36 9.63999C13.36 9.63999 13.36 9.63332 13.3534 9.63332C13.3067 9.58666 13.2534 9.55332 13.1934 9.52666C13.1334 9.49999 13.0667 9.48665 13 9.48665L9.88669 9.49999C9.88669 9.49999 9.88669 9.49999 9.88003 9.49999C9.48003 9.49999 9.09336 9.31332 8.85336 8.99332L8.04003 7.94665C7.87336 7.72665 7.56003 7.68665 7.34003 7.85999C7.12003 8.03332 7.08003 8.33999 7.25336 8.55999L8.06669 9.60665C8.50003 10.1667 9.18003 10.5 9.88669 10.5H9.89336L11.7934 10.4933L11.32 10.9667C11.1267 11.16 11.1267 11.48 11.32 11.6733C11.42 11.7733 11.5467 11.82 11.6734 11.82C11.8 11.82 11.9267 11.7733 12.0267 11.6733L13.36 10.34C13.4067 10.2933 13.44 10.24 13.4667 10.18C13.4867 10.1133 13.5 10.0467 13.5 9.98665Z" fill="white"/>
<path d="M4.61333 2.45999C4.18 1.85999 3.48667 1.50665 2.74667 1.50665C2.74 1.50665 2.74 1.50665 2.73333 1.50665L1 1.51332C0.726667 1.51332 0.5 1.73999 0.5 2.01332C0.5 2.28665 0.726667 2.51332 1 2.51332L2.74 2.50665H2.74667C3.16667 2.50665 3.56 2.70665 3.8 3.04665L4.52 4.04665C4.62 4.17999 4.77333 4.25332 4.92667 4.25332C5.02667 4.25332 5.13333 4.21999 5.22 4.15999C5.44667 3.99332 5.49333 3.67999 5.33333 3.45999L4.61333 2.45999Z" fill="white"/>
<path d="M13.4933 2.05335C13.4933 2.04002 13.5 2.02669 13.5 2.02002C13.5 1.95335 13.4867 1.88669 13.46 1.82669C13.4333 1.76669 13.4 1.71335 13.3533 1.66669L12.02 0.333354C11.8267 0.140021 11.5067 0.140021 11.3133 0.333354C11.12 0.526688 11.12 0.846688 11.3133 1.04002L11.7867 1.51335L9.96667 1.50669C9.96 1.50669 9.96 1.50669 9.95333 1.50669C9.18667 1.50669 8.46667 1.88669 8.04 2.53335L3.78 8.92002C3.54 9.28002 3.13333 9.50002 2.7 9.50002H2.69333L1 9.48669C0.726667 9.48669 0.5 9.70669 0.5 9.98669C0.5 10.26 0.72 10.4867 1 10.4867L2.7 10.4934C2.70667 10.4934 2.70667 10.4934 2.71333 10.4934C3.48667 10.4934 4.2 10.1134 4.62667 9.46669L8.88667 3.08002C9.12667 2.72002 9.53333 2.50002 9.96667 2.50002H9.97333L13 2.51335C13.0667 2.51335 13.1267 2.50002 13.1933 2.47335C13.2533 2.44669 13.3067 2.41335 13.3533 2.36669C13.3533 2.36669 13.3533 2.36002 13.36 2.36002C13.4 2.31335 13.44 2.26669 13.46 2.20669C13.48 2.16002 13.4867 2.10669 13.4933 2.05335Z" fill="white"/>
</svg>
