<svg width="17" height="13" viewBox="0 0 17 13" fill="none" xmlns="http://www.w3.org/2000/svg">
<path d="M12.5625 10.0061C12.4425 10.0061 12.33 9.96856 12.225 9.89356C11.9775 9.70606 11.925 9.35356 12.1125 9.10606C13.29 7.53856 13.29 5.34856 12.1125 3.78106C11.925 3.53356 11.9775 3.18106 12.225 2.99356C12.4725 2.80606 12.825 2.85856 13.0125 3.10606C14.4825 5.07106 14.4825 7.81606 13.0125 9.78106C12.9 9.93106 12.735 10.0061 12.5625 10.0061Z" fill="#EFEEE0"/>
<path d="M13.935 11.8811C13.815 11.8811 13.7025 11.8436 13.5975 11.7686C13.35 11.5811 13.2975 11.2286 13.485 10.9811C15.4875 8.31106 15.4875 4.57606 13.485 1.90606C13.2975 1.65856 13.35 1.30606 13.5975 1.11856C13.845 0.931064 14.1975 0.983564 14.385 1.23106C16.6875 4.29856 16.6875 8.58856 14.385 11.6561C14.28 11.8061 14.1075 11.8811 13.935 11.8811Z" fill="#EFEEE0"/>
<path d="M9.5775 0.27864C8.7375 -0.18636 7.665 -0.0663595 6.57 0.61614L4.38 1.98864C4.23 2.07864 4.0575 2.13114 3.885 2.13114H2.8125C0.9975 2.13114 0 3.12864 0 4.94364V7.94364C0 9.75864 0.9975 10.7561 2.8125 10.7561H3.885C4.0575 10.7561 4.23 10.8086 4.38 10.8986L6.57 12.2711C7.23 12.6836 7.875 12.8861 8.475 12.8861C8.865 12.8861 9.24 12.7961 9.5775 12.6086C10.41 12.1436 10.875 11.1761 10.875 9.88614V3.00114C10.875 1.71114 10.41 0.74364 9.5775 0.27864Z" fill="#EFEEE0"/>
</svg>
