<svg width="20" height="17" viewBox="0 0 20 17" fill="none" xmlns="http://www.w3.org/2000/svg">
<path d="M9.29492 0C9.12292 0 8.94769 0.0650312 8.80469 0.207031L4 5.01172H2C0.895 5.01172 0 5.90672 0 7.01172V9.01172C0 10.1167 0.895 11.0117 2 11.0117H4L8.80469 15.8164C8.94769 15.9594 9.12292 16.0234 9.29492 16.0234C9.65492 16.0234 10 15.7443 10 15.3223V0.701172C10 0.279172 9.65492 0 9.29492 0ZM14.9395 2.05078C14.7401 2.05043 14.5452 2.10966 14.3798 2.22087C14.2143 2.33208 14.0859 2.4902 14.011 2.67492C13.936 2.85964 13.918 3.06254 13.9592 3.25758C14.0004 3.45262 14.0989 3.6309 14.2422 3.76953C16.5941 6.12144 16.5939 9.90306 14.2422 12.2539C14.1462 12.3461 14.0696 12.4564 14.0168 12.5785C13.964 12.7007 13.9361 12.8321 13.9348 12.9652C13.9334 13.0982 13.9586 13.2302 14.0089 13.3533C14.0592 13.4765 14.1336 13.5884 14.2276 13.6825C14.3217 13.7766 14.4336 13.851 14.5568 13.9012C14.68 13.9515 14.812 13.9767 14.945 13.9754C15.078 13.974 15.2095 13.9461 15.3316 13.8934C15.4537 13.8406 15.5641 13.7639 15.6562 13.668C18.7725 10.5528 18.7723 5.47156 15.6562 2.35547C15.5632 2.25932 15.4519 2.18281 15.3287 2.13048C15.2056 2.07814 15.0732 2.05104 14.9395 2.05078ZM12.1113 4.88086C11.9124 4.88091 11.718 4.94029 11.553 5.0514C11.388 5.16252 11.2599 5.32032 11.185 5.50463C11.1101 5.68894 11.0919 5.89139 11.1328 6.08609C11.1736 6.2808 11.2715 6.45891 11.4141 6.59766C12.2042 7.38775 12.2042 8.63569 11.4141 9.42578C11.321 9.51862 11.2472 9.62888 11.1968 9.75025C11.1464 9.87162 11.1204 10.0017 11.1203 10.1332C11.1202 10.2646 11.146 10.3947 11.1962 10.5162C11.2464 10.6376 11.32 10.748 11.4129 10.841C11.5058 10.934 11.616 11.0078 11.7374 11.0582C11.8588 11.1085 11.9889 11.1345 12.1203 11.1346C12.2518 11.1346 12.3819 11.1088 12.5034 11.0586C12.6248 11.0084 12.7352 10.9347 12.8281 10.8418C14.382 9.28789 14.382 6.7375 12.8281 5.18359C12.7349 5.0878 12.6235 5.01165 12.5004 4.95966C12.3773 4.90766 12.245 4.88087 12.1113 4.88086Z" fill="white"/>
</svg>
