<svg width="21" height="17" viewBox="0 0 21 17" fill="none" xmlns="http://www.w3.org/2000/svg">
<path d="M9.29492 0C9.12292 0 8.94769 0.0650312 8.80469 0.207031L4 5.01172H2C0.895 5.01172 0 5.90672 0 7.01172V9.01172C0 10.1167 0.895 11.0117 2 11.0117H4L8.80469 15.8164C8.94769 15.9594 9.12292 16.0234 9.29492 16.0234C9.65492 16.0234 10 15.7443 10 15.3223V0.701172C10 0.279172 9.65492 0 9.29492 0ZM12.9902 4.00195C12.7913 4.00201 12.5969 4.06138 12.4319 4.1725C12.2669 4.28361 12.1388 4.44141 12.0639 4.62572C11.989 4.81004 11.9709 5.01248 12.0117 5.20719C12.0525 5.40189 12.1504 5.58 12.293 5.71875L14.5859 8.01172L12.293 10.3047C12.197 10.3968 12.1204 10.5072 12.0676 10.6293C12.0148 10.7515 11.9869 10.8829 11.9856 11.0159C11.9842 11.149 12.0094 11.2809 12.0597 11.4041C12.11 11.5273 12.1843 11.6392 12.2784 11.7333C12.3725 11.8274 12.4844 11.9017 12.6076 11.952C12.7308 12.0023 12.8627 12.0275 12.9958 12.0262C13.1288 12.0248 13.2603 11.9969 13.3824 11.9441C13.5045 11.8913 13.6149 11.8147 13.707 11.7188L16 9.42578L18.293 11.7188C18.3851 11.8147 18.4955 11.8913 18.6176 11.9441C18.7397 11.9969 18.8712 12.0248 19.0042 12.0262C19.1373 12.0275 19.2692 12.0023 19.3924 11.952C19.5156 11.9017 19.6275 11.8274 19.7216 11.7333C19.8157 11.6392 19.89 11.5273 19.9403 11.4041C19.9906 11.2809 20.0158 11.149 20.0144 11.0159C20.0131 10.8829 19.9852 10.7515 19.9324 10.6293C19.8796 10.5072 19.803 10.3968 19.707 10.3047L17.4141 8.01172L19.707 5.71875C19.8515 5.57829 19.9502 5.39745 19.9902 5.19993C20.0301 5.00241 20.0095 4.79742 19.931 4.61184C19.8524 4.42625 19.7196 4.26872 19.55 4.15989C19.3804 4.05106 19.1819 3.99601 18.9805 4.00195C18.7207 4.00969 18.4741 4.11827 18.293 4.30469L16 6.59766L13.707 4.30469C13.6138 4.20889 13.5024 4.13275 13.3793 4.08075C13.2562 4.02875 13.1239 4.00196 12.9902 4.00195Z" fill="white"/>
</svg>
