<svg width="22" height="22" viewBox="0 0 22 22" fill="none" xmlns="http://www.w3.org/2000/svg">
<path d="M6.05499 0C4.95499 0 4.05499 0.9 4.05499 2V12.1992C3.25499 11.8992 2.4546 12.0004 1.6546 12.4004C0.154599 13.1004 -0.444229 14.9004 0.355771 16.4004C0.955771 17.6004 2.25499 18.2 3.55499 18C5.05499 17.7 6.05499 16.4004 6.05499 14.9004V7C6.05499 6.4 6.45499 6 7.05499 6H14.055C14.655 6 15.055 6.4 15.055 7V9.09961C15.755 8.99961 16.355 8.99961 17.055 9.09961V2C17.055 0.9 16.155 0 15.055 0H6.05499ZM16.055 11.0254C15.73 11.0254 15.405 11.0496 15.055 11.0996C14.155 11.2996 13.3546 11.7004 12.6546 12.4004C11.7546 13.2004 11.2546 14.3 11.1546 15.5V16.0996C11.1546 18.8996 13.3546 21.0996 16.1546 21.0996C18.9546 21.0996 21.1546 18.8996 21.1546 16.0996C21.0546 13.5996 19.355 11.5996 17.055 11.0996C16.705 11.0496 16.38 11.0254 16.055 11.0254ZM16.055 13C16.655 13 17.055 13.4 17.055 14V15H18.055C18.655 15 19.055 15.4 19.055 16C19.055 16.6 18.655 17 18.055 17H17.055V18C17.055 18.6 16.655 19 16.055 19C15.455 19 15.055 18.6 15.055 18V17H14.055C13.455 17 13.055 16.6 13.055 16C13.055 15.4 13.455 15 14.055 15H15.055V14C15.055 13.4 15.455 13 16.055 13Z" fill="white"/>
</svg>
