<svg width="30" height="30" viewBox="0 0 30 30" fill="none" xmlns="http://www.w3.org/2000/svg">
<path d="M3.66663 6.66669H23.6666C24.4623 6.66669 25.2253 6.35062 25.7879 5.78801C26.3506 5.2254 26.6666 4.46234 26.6666 3.66669C26.6666 2.87104 26.3506 2.10798 25.7879 1.54537C25.2253 0.982757 24.4623 0.666687 23.6666 0.666687H3.66663C2.87098 0.666687 2.10791 0.982757 1.54531 1.54537C0.982697 2.10798 0.666626 2.87104 0.666626 3.66669C0.666626 4.46234 0.982697 5.2254 1.54531 5.78801C2.10791 6.35062 2.87098 6.66669 3.66663 6.66669ZM23.6666 9.33335H3.66663C2.87098 9.33335 2.10791 9.64942 1.54531 10.212C0.982697 10.7746 0.666626 11.5377 0.666626 12.3334C0.666626 13.129 0.982697 13.8921 1.54531 14.4547C2.10791 15.0173 2.87098 15.3334 3.66663 15.3334H23.6666C24.4623 15.3334 25.2253 15.0173 25.7879 14.4547C26.3506 13.8921 26.6666 13.129 26.6666 12.3334C26.6666 11.5377 26.3506 10.7746 25.7879 10.212C25.2253 9.64942 24.4623 9.33335 23.6666 9.33335ZM13 18.6667H3.66663C2.87098 18.6667 2.10791 18.9828 1.54531 19.5454C0.982696 20.108 0.666626 20.871 0.666626 21.6667C0.666626 22.4623 0.982696 23.2254 1.54531 23.788C2.10791 24.3506 2.87098 24.6667 3.66663 24.6667H13C13.7956 24.6667 14.5587 24.3506 15.1213 23.788C15.6839 23.2254 16 22.4623 16 21.6667C16 20.871 15.6839 20.108 15.1213 19.5454C14.5587 18.9828 13.7956 18.6667 13 18.6667ZM23 16.6667C21.7473 16.6667 20.5229 17.0381 19.4813 17.734C18.4398 18.43 17.6281 19.4191 17.1487 20.5764C16.6694 21.7336 16.5439 23.007 16.7883 24.2356C17.0327 25.4641 17.6359 26.5926 18.5216 27.4784C19.4073 28.3641 20.5358 28.9673 21.7644 29.2117C22.9929 29.456 24.2664 29.3306 25.4236 28.8513C26.5809 28.3719 27.57 27.5601 28.2659 26.5186C28.9618 25.4771 29.3333 24.2526 29.3333 23C29.3319 21.3207 28.6642 19.7107 27.4767 18.5232C26.2893 17.3358 24.6792 16.6681 23 16.6667ZM25 24H24V25C24 25.2652 23.8946 25.5196 23.7071 25.7071C23.5195 25.8947 23.2652 26 23 26C22.7347 26 22.4804 25.8947 22.2929 25.7071C22.1053 25.5196 22 25.2652 22 25V24H21C20.7347 24 20.4804 23.8947 20.2929 23.7071C20.1053 23.5196 20 23.2652 20 23C20 22.7348 20.1053 22.4804 20.2929 22.2929C20.4804 22.1054 20.7347 22 21 22H22V21C22 20.7348 22.1053 20.4805 22.2929 20.2929C22.4804 20.1054 22.7347 20 23 20C23.2652 20 23.5195 20.1054 23.7071 20.2929C23.8946 20.4805 24 20.7348 24 21V22H25C25.2652 22 25.5195 22.1054 25.7071 22.2929C25.8946 22.4804 26 22.7348 26 23C26 23.2652 25.8946 23.5196 25.7071 23.7071C25.5195 23.8947 25.2652 24 25 24Z" fill="white"/>
</svg>
