<svg width="14" height="13" viewBox="0 0 14 13" fill="none" xmlns="http://www.w3.org/2000/svg">
<path d="M4.18668 0.00010311C4.60668 0.0128762 5.01334 0.0862096 5.40734 0.22021H5.44668C5.47334 0.232876 5.49334 0.246876 5.50668 0.259543C5.65401 0.306876 5.79334 0.36021 5.92668 0.433543L6.18001 0.546876C6.28001 0.60021 6.40001 0.699543 6.46668 0.74021C6.53334 0.779543 6.60668 0.82021 6.66668 0.86621C7.40734 0.30021 8.30668 -0.00645711 9.23334 0.00010311C9.65401 0.00010311 10.074 0.0595429 10.4733 0.193543C12.934 0.993543 13.8207 3.69354 13.08 6.05354C12.66 7.25954 11.9733 8.36021 11.074 9.25954C9.78668 10.5062 8.37401 11.6129 6.85334 12.5662L6.68668 12.6669L6.51334 12.5595C4.98734 11.6129 3.56668 10.5062 2.26734 9.25288C1.37401 8.35354 0.686678 7.25954 0.260011 6.05354C-0.493322 3.69354 0.393345 0.993543 2.88068 0.179543C3.07401 0.112876 3.27334 0.0662096 3.47334 0.0402096H3.55334C3.74068 0.0128762 3.92668 0.00010311 4.11334 0.00010311H4.18668ZM10.1267 2.10688C9.85334 2.01288 9.55334 2.16021 9.45334 2.44021C9.36001 2.72021 9.50668 3.02688 9.78668 3.12621C10.214 3.28621 10.5 3.70688 10.5 4.17288V4.19354C10.4873 4.34621 10.5333 4.49354 10.6267 4.60688C10.72 4.72021 10.86 4.78621 11.0067 4.80021C11.28 4.79288 11.5133 4.57354 11.5333 4.29288V4.21354C11.5533 3.27954 10.9873 2.43354 10.1267 2.10688Z" fill="white"/>
</svg>
