<svg width="26" height="19" viewBox="0 0 26 19" fill="none" xmlns="http://www.w3.org/2000/svg">
<path d="M14.7017 0C16.9773 0 18.8333 1.82417 18.8333 4.07V8.46083H13.2374C12.8364 8.46083 12.5193 8.7725 12.5193 9.16667C12.5193 9.55167 12.8364 9.8725 13.2374 9.8725H18.8333V14.2542C18.8333 16.5 16.9773 18.3333 14.683 18.3333H10.141C7.85598 18.3333 6 16.5092 6 14.2633V4.07917C6 1.82417 7.86531 0 10.1503 0H14.7017ZM21.1618 6.00435C21.4368 5.72018 21.886 5.72018 22.161 5.99518L24.8377 8.66268C24.9752 8.80018 25.0485 8.97435 25.0485 9.16685C25.0485 9.35018 24.9752 9.53352 24.8377 9.66185L22.161 12.3294C22.0235 12.4669 21.8402 12.5402 21.666 12.5402C21.4827 12.5402 21.2993 12.4669 21.1618 12.3294C20.8868 12.0544 20.8868 11.6052 21.1618 11.3302L22.6285 9.87268L18.8333 9.8725V8.46083L22.6285 8.46102L21.1618 7.00352C20.8868 6.72852 20.8868 6.27935 21.1618 6.00435Z" fill="#EFEEE0"/>
</svg>
