<svg width="20" height="19" viewBox="0 0 20 19" fill="none" xmlns="http://www.w3.org/2000/svg">
<path d="M8.70167 0C10.9773 0 12.8333 1.82417 12.8333 4.07V8.46083H7.2374C6.83636 8.46083 6.51926 8.7725 6.51926 9.16667C6.51926 9.55167 6.83636 9.8725 7.2374 9.8725H12.8333V14.2542C12.8333 16.5 10.9773 18.3333 8.68302 18.3333H4.14099C1.85598 18.3333 0 16.5092 0 14.2633V4.07917C0 1.82417 1.86531 0 4.15031 0H8.70167ZM15.1618 6.00435C15.4368 5.72018 15.886 5.72018 16.161 5.99518L18.8377 8.66268C18.9752 8.80018 19.0485 8.97435 19.0485 9.16685C19.0485 9.35018 18.9752 9.53352 18.8377 9.66185L16.161 12.3294C16.0235 12.4669 15.8402 12.5402 15.666 12.5402C15.4827 12.5402 15.2993 12.4669 15.1618 12.3294C14.8868 12.0544 14.8868 11.6052 15.1618 11.3302L16.6285 9.87268H12.8335V8.46102H16.6285L15.1618 7.00352C14.8868 6.72852 14.8868 6.27935 15.1618 6.00435Z" fill="#EFEEE0"/>
</svg>
