<svg width="20" height="20" viewBox="0 0 20 20" fill="none" xmlns="http://www.w3.org/2000/svg">
<path d="M14.5833 3.35417H13.6667V1.98833C13.6667 1.2275 13.0433 0.604167 12.2825 0.604167H7.7175C6.95667 0.604167 6.33333 1.2275 6.33333 1.98833V3.35417H5.41667C4.40833 3.35417 3.58333 4.17917 3.58333 5.1875V5.30667C3.87667 5.22417 4.17917 5.1875 4.5 5.1875H15.5C15.8208 5.1875 16.1233 5.22417 16.4167 5.30667V5.1875C16.4167 4.17917 15.5917 3.35417 14.5833 3.35417Z" fill="#EFEEE0"/>
<path d="M11.7692 14.5192C11.4758 14.5192 11.2467 14.7575 11.2467 15.0417C11.2467 15.3258 11.485 15.5642 11.7692 15.5642C12.0533 15.5642 12.2917 15.3258 12.2917 15.0417C12.2917 14.7575 12.0533 14.5192 11.7692 14.5192Z" fill="#EFEEE0"/>
<path d="M7.31416 15.3258C7.02083 15.3258 6.79166 15.5642 6.79166 15.8483C6.79166 16.1325 7.03 16.3708 7.31416 16.3708C7.59833 16.3708 7.83666 16.1325 7.83666 15.8483C7.83666 15.5642 7.6075 15.3258 7.31416 15.3258Z" fill="#EFEEE0"/>
<path d="M16.4167 6.68167C16.1233 6.59917 15.8208 6.5625 15.5 6.5625H4.5C4.17917 6.5625 3.87667 6.59917 3.58333 6.68167C2.00667 7.09417 0.833332 8.53333 0.833332 10.2292V15.7292C0.833332 17.7458 2.48333 19.3958 4.5 19.3958H15.5C17.5167 19.3958 19.1667 17.7458 19.1667 15.7292V10.2292C19.1667 8.53333 17.9933 7.09417 16.4167 6.68167ZM13.6667 15.0417C13.6667 16.0867 12.8142 16.9392 11.7692 16.9392C10.7242 16.9392 9.87167 16.0867 9.87167 15.0417C9.87167 13.9967 10.7242 13.1442 11.7692 13.1442C11.9525 13.1442 12.1267 13.1808 12.2917 13.2267V12.0717L9.22083 12.9058V15.8483C9.22083 15.8575 9.22083 15.8667 9.21167 15.8758C9.2025 16.9117 8.35 17.755 7.31417 17.755C6.26917 17.755 5.41667 16.9025 5.41667 15.8483C5.41667 14.7942 6.26917 13.9508 7.31417 13.9508C7.4975 13.9508 7.67167 13.9875 7.84583 14.0333V10.9625C7.84583 10.1742 8.34083 9.5325 9.0925 9.33083L11.5217 8.66167C12.3008 8.45083 12.7958 8.6525 13.0708 8.86333C13.3458 9.07417 13.6667 9.48667 13.6667 10.3025V15.0417Z" fill="#EFEEE0"/>
</svg>
