<svg width="20" height="20" viewBox="0 0 20 20" fill="none" xmlns="http://www.w3.org/2000/svg">
<path d="M6.10417 0.833333V3.58333H5.41667C5.17833 3.58333 4.94917 3.5925 4.72917 3.62917V0.833333C4.72917 0.4575 5.04083 0.145833 5.41667 0.145833C5.7925 0.145833 6.10417 0.4575 6.10417 0.833333Z" fill="#EFEEE0"/>
<path d="M14.5833 3.58333H5.41667C5.17833 3.58333 4.94917 3.5925 4.72917 3.62917C2.36417 3.90417 0.833333 5.655 0.833333 8.16667V14.5833C0.833333 17.3333 2.66667 19.1667 5.41667 19.1667H14.5833C17.3333 19.1667 19.1667 17.3333 19.1667 14.5833V8.16667C19.1667 5.41667 17.3333 3.58333 14.5833 3.58333ZM6.22333 13.6667C4.95833 13.6667 3.93167 12.64 3.93167 11.375C3.93167 10.11 4.95833 9.08333 6.22333 9.08333C7.48833 9.08333 8.515 10.11 8.515 11.375C8.515 12.64 7.48833 13.6667 6.22333 13.6667ZM12.1817 13.8958H11.7233C11.3475 13.8958 11.0358 13.5842 11.0358 13.2083C11.0358 12.8325 11.3475 12.5208 11.7233 12.5208H12.1817C12.5575 12.5208 12.8692 12.8325 12.8692 13.2083C12.8692 13.5842 12.5575 13.8958 12.1817 13.8958ZM15.39 13.8958H14.9317C14.5558 13.8958 14.2442 13.5842 14.2442 13.2083C14.2442 12.8325 14.5558 12.5208 14.9317 12.5208H15.39C15.7658 12.5208 16.0775 12.8325 16.0775 13.2083C16.0775 13.5842 15.7658 13.8958 15.39 13.8958ZM15.39 10.2292H11.7233C11.3475 10.2292 11.0358 9.9175 11.0358 9.54167C11.0358 9.16583 11.3475 8.85417 11.7233 8.85417H15.39C15.7658 8.85417 16.0775 9.16583 16.0775 9.54167C16.0775 9.9175 15.7658 10.2292 15.39 10.2292Z" fill="#EFEEE0"/>
</svg>
