<svg width="13" height="19" viewBox="0 0 13 19" fill="none" xmlns="http://www.w3.org/2000/svg">
<path d="M6.45329 0C4.05162 0 2.09912 1.9525 2.09912 4.35417C2.09912 6.71 3.94162 8.61667 6.34329 8.69917C6.41662 8.69 6.48995 8.69 6.54495 8.69917C6.56329 8.69917 6.57245 8.69917 6.59079 8.69917C6.59995 8.69917 6.59995 8.69917 6.60912 8.69917C8.95579 8.61667 10.7983 6.71 10.8075 4.35417C10.8075 1.9525 8.85495 0 6.45329 0Z" fill="#EFEEE0"/>
<path d="M11.11 11.1375C8.5525 9.4325 4.38167 9.4325 1.80583 11.1375C0.641667 11.9167 0 12.9708 0 14.0983C0 15.2258 0.641667 16.2708 1.79667 17.0408C3.08 17.9025 4.76667 18.3333 6.45333 18.3333C8.14 18.3333 9.82667 17.9025 11.11 17.0408C12.265 16.2617 12.9067 15.2167 12.9067 14.08C12.8975 12.9525 12.265 11.9075 11.11 11.1375Z" fill="#EFEEE0"/>
</svg>
