<svg width="20" height="20" viewBox="0 0 20 20" fill="none" xmlns="http://www.w3.org/2000/svg">
<path d="M9.3125 6.205H0.833334V13.8408C0.833334 13.8958 0.833334 13.9508 0.842501 13.9967H9.3125V6.205Z" fill="#EFEEE0"/>
<path d="M6.04917 4.83H9.3125V0.833333H6.07667V4.72C6.07667 4.75667 6.05833 4.79333 6.04917 4.83Z" fill="#EFEEE0"/>
<path d="M4.70167 4.72V0.98C2.66667 1.40167 1.3375 2.75833 0.952499 4.83H4.72C4.71083 4.79333 4.70167 4.75667 4.70167 4.72Z" fill="#EFEEE0"/>
<path d="M13.8683 0.833333H10.6875V4.83H13.8683V0.833333Z" fill="#EFEEE0"/>
<path d="M15.2342 4.83H19.0475C18.6625 2.74 17.315 1.37417 15.2433 0.970833V4.8025C15.2433 4.81167 15.2342 4.82083 15.2342 4.83Z" fill="#EFEEE0"/>
<path d="M15.2433 19.0292C17.2508 18.635 18.5708 17.3517 19.0017 15.3717H15.2433V19.0292Z" fill="#EFEEE0"/>
<path d="M13.8683 15.3717H10.6875V19.1667H13.8683V15.3717Z" fill="#EFEEE0"/>
<path d="M10.6875 13.9967H19.1575C19.1667 13.9508 19.1667 13.8958 19.1667 13.8408V6.205H10.6875V13.9967Z" fill="#EFEEE0"/>
<path d="M9.3125 15.3717H6.07667V19.1667H9.3125V15.3717Z" fill="#EFEEE0"/>
<path d="M0.998333 15.3717C1.42917 17.3333 2.73083 18.6167 4.70167 19.02V15.3717H0.998333Z" fill="#EFEEE0"/>
</svg>
