<svg width="149" height="149" viewBox="0 0 149 149" fill="none" xmlns="http://www.w3.org/2000/svg">
<path d="M16.5261 128.665L73.3165 148.764C73.4348 148.764 73.5531 148.882 73.6714 148.882C73.9081 149 74.263 149 74.4996 149C74.7362 149 74.8546 149 75.0912 149C75.0912 149 75.0912 149 75.2095 149C75.3278 149 75.5644 148.882 75.6828 148.882L132.473 128.783C133.893 128.31 134.839 126.892 134.839 125.473V85.6305L146.671 81.4926C147.617 81.1379 148.445 80.3103 148.8 79.3645C149.155 78.4187 149.037 77.2365 148.445 76.2906L134.248 52.6453L134.129 52.5271C134.129 52.4089 134.011 52.4089 134.011 52.2906C134.011 52.1724 133.893 52.1724 133.893 52.0542C133.893 52.0542 133.893 52.0542 133.893 51.936C133.775 51.8177 133.775 51.8177 133.656 51.6995L133.538 51.5813L133.42 51.4631H133.301L133.183 51.3448C133.065 51.2266 132.946 51.2266 132.828 51.2266C132.71 51.2266 132.71 51.1084 132.591 51.1084L75.8011 31.0099C75.8011 31.0099 75.8011 31.0099 75.6828 31.0099H75.5644H75.4461C75.3278 31.0099 75.3278 31.0099 75.2095 31.0099C75.0912 31.0099 75.0912 31.0099 74.9729 31.0099C74.8546 31.0099 74.8546 31.0099 74.7362 31.0099C74.6179 31.0099 74.4996 31.0099 74.263 31.0099C74.1447 31.0099 74.1447 31.0099 74.0264 31.0099C73.7897 31.0099 73.5531 31.1281 73.4348 31.1281L16.6444 51.2266C16.4078 51.3448 16.2895 51.3448 16.0529 51.4631L15.9346 51.5813C15.8162 51.6995 15.6979 51.6995 15.5796 51.8177L15.4613 51.936C15.343 52.0542 15.2247 52.0542 15.2247 52.1724L15.1064 52.2906C14.9881 52.4089 14.9881 52.5271 14.8697 52.5271C14.8697 52.5271 14.8697 52.6453 14.7514 52.6453L0.553839 76.2906C-0.274354 77.5911 -0.15604 79.2463 0.790466 80.3104C1.50035 81.1379 2.44685 81.6108 3.51167 81.6108C3.86661 81.6108 4.33986 81.4926 4.6948 81.3744L14.1599 78.064V125.355C14.1599 126.892 15.1064 128.192 16.5261 128.665Z" fill="#020122"/>
<path d="M16.5261 128.665L73.3165 148.764C73.4348 148.764 73.5531 148.882 73.6714 148.882C73.9081 149 74.263 149 74.4996 149C74.7362 149 74.8546 149 75.0912 149C75.0912 149 75.0912 149 75.2095 149C75.3278 149 75.5644 148.882 75.6828 148.882L132.473 128.783C133.893 128.31 134.839 126.892 134.839 125.473V85.6305L146.671 81.4926C147.617 81.1379 148.445 80.3103 148.8 79.3645C149.155 78.4187 149.037 77.2365 148.445 76.2906L134.248 52.6453L134.129 52.5271C134.129 52.4089 134.011 52.4089 134.011 52.2906C134.011 52.1724 133.893 52.1724 133.893 52.0542C133.893 52.0542 133.893 52.0542 133.893 51.936C133.775 51.8177 133.775 51.8177 133.656 51.6995L133.538 51.5813L133.42 51.4631H133.301L133.183 51.3448C133.065 51.2266 132.946 51.2266 132.828 51.2266C132.71 51.2266 132.71 51.1084 132.591 51.1084L75.8011 31.0099C75.8011 31.0099 75.8011 31.0099 75.6828 31.0099H75.5644H75.4461C75.3278 31.0099 75.3278 31.0099 75.2095 31.0099C75.0912 31.0099 75.0912 31.0099 74.9729 31.0099C74.8546 31.0099 74.8546 31.0099 74.7362 31.0099C74.6179 31.0099 74.4996 31.0099 74.263 31.0099C74.1447 31.0099 74.1447 31.0099 74.0264 31.0099C73.7897 31.0099 73.5531 31.1281 73.4348 31.1281L16.6444 51.2266C16.4078 51.3448 16.2895 51.3448 16.0529 51.4631L15.9346 51.5813C15.8162 51.6995 15.6979 51.6995 15.5796 51.8177L15.4613 51.936C15.343 52.0542 15.2247 52.0542 15.2247 52.1724L15.1064 52.2906C14.9881 52.4089 14.9881 52.5271 14.8697 52.5271C14.8697 52.5271 14.8697 52.6453 14.7514 52.6453L0.553839 76.2906C-0.274354 77.5911 -0.15604 79.2463 0.790466 80.3104C1.50035 81.1379 2.44685 81.6108 3.51167 81.6108C3.86661 81.6108 4.33986 81.4926 4.6948 81.3744L14.1599 78.064V125.355C14.1599 126.892 15.1064 128.192 16.5261 128.665ZM140.163 76.1724L90.2353 93.9064L79.7054 76.4089L129.634 58.6749L140.163 76.1724ZM75.33 39.2857L120.642 54.4187L75.33 69.5517L30.2527 54.4187L75.33 39.2857ZM78.049 87.2857L85.6211 99.936C86.3309 101.118 87.5141 101.709 88.6972 101.709C89.0521 101.709 89.5254 101.591 89.8803 101.473L127.741 88.1133V122.872L78.049 140.488V87.2857ZM21.2587 59.3842L70.9502 77V140.369L21.2587 122.754V59.3842Z" fill="#E7E7E7"/>
<path d="M85.8094 4.52184L100.901 10.1769C103.886 11.2965 105.89 14.187 105.89 17.372V23.9161C105.89 24.4978 105.605 25.0433 105.125 25.3731C104.645 25.7053 104.036 25.7809 103.492 25.5763L86.9602 19.381V42.8323C86.9602 47.721 81.6527 51.6993 75.1289 51.6993C68.6051 51.6993 63.2976 47.721 63.2976 42.8323C63.2976 37.9437 68.6051 33.9653 75.1289 33.9653C78.3515 33.9653 81.2749 34.9383 83.4108 36.51V6.18211C83.4108 5.60044 83.6965 5.05491 84.1757 4.72506C84.536 4.47679 84.9677 4.3711 85.3912 4.42026C85.5323 4.43665 85.6734 4.47071 85.8094 4.52184Z" fill="#DDDDDD"/>
<path d="M85.8695 0.310026C84.4499 0.14523 83.0066 0.505223 81.8256 1.31911C80.2241 2.4223 79.2699 4.24705 79.2699 6.1821V30.4462C77.9214 30.1516 76.5793 29.8274 75.1289 29.8274C71.0246 29.8274 67.2313 31.046 64.282 33.2564C61.3327 35.4669 59.1566 38.8916 59.1566 42.8323C59.1566 46.773 61.3327 50.2001 64.282 52.4105C67.2313 54.621 71.0246 55.8372 75.1289 55.8372C79.2331 55.8372 83.0265 54.621 85.9758 52.4105C88.9251 50.2001 91.1012 46.773 91.1012 42.8323V25.3523L102.034 29.4487C103.844 30.1292 105.894 29.8702 107.48 28.7744H107.483C109.08 27.6708 110.031 25.8484 110.031 23.9161V17.3721C110.031 12.4526 106.967 8.03107 102.357 6.30217C102.356 6.30217 102.356 6.30217 102.355 6.30217L87.2675 0.649466C87.266 0.648872 87.2644 0.647749 87.2629 0.647157C87.2621 0.647157 87.2613 0.647157 87.2605 0.647157C86.8117 0.479057 86.348 0.365569 85.8695 0.310026ZM84.3606 8.39192L84.3582 8.39654C84.3559 8.3957 84.3535 8.39507 84.3512 8.39424C84.3543 8.39347 84.3575 8.39269 84.3606 8.39192ZM87.5518 9.59497L99.4455 14.0516C100.806 14.5619 101.749 15.9215 101.749 17.3721V20.5032L88.4137 15.5063C88.1235 15.5114 87.8346 15.547 87.5518 15.6125V9.59497ZM75.1289 38.1033C77.5174 38.1033 79.6143 38.8559 80.9544 39.842C81.5561 40.0351 82.194 40.088 82.8193 39.9967V42.8323C82.8193 43.7803 82.3407 44.7871 81.0053 45.788C79.6699 46.7888 77.5484 47.5614 75.1289 47.5614C72.7094 47.5614 70.5879 46.7888 69.2525 45.788C67.9171 44.7871 67.4385 43.7803 67.4385 42.8323C67.4385 41.8844 67.9171 40.8775 69.2525 39.8767C70.5879 38.8758 72.7094 38.1033 75.1289 38.1033Z" fill="#E7E7E7"/>
<path d="M85.3912 4.42025C84.9677 4.37109 84.536 4.47677 84.1757 4.72505C83.6965 5.0549 83.4108 5.60042 83.4108 6.1821V36.51C81.2749 34.9382 78.3515 33.9653 75.1289 33.9653C68.6051 33.9653 63.2976 37.9437 63.2976 42.8323C63.2976 47.721 68.6051 51.6993 75.1289 51.6993C81.6527 51.6993 86.9602 47.721 86.9602 42.8323V19.381L103.492 25.5763C104.036 25.7808 104.645 25.7053 105.125 25.3731C105.605 25.0433 105.89 24.4977 105.89 23.9161V17.372C105.89 14.187 103.886 11.2965 100.901 10.1769L85.8094 4.52184C85.6734 4.47071 85.5324 4.43663 85.3912 4.42025Z" fill="#020122"/>
</svg>
