<svg width="14" height="14" viewBox="0 0 14 14" fill="none" xmlns="http://www.w3.org/2000/svg">
<path d="M11.4733 8.67338C10.7466 8.62671 9.99996 8.89338 9.44663 9.44671C8.40663 10.4867 8.40663 12.1734 9.44663 13.22C9.79996 13.5734 10.2333 13.8067 10.6933 13.92C10.9466 13.9867 11.2133 14.0067 11.48 13.9934C12.1133 13.9667 12.7333 13.7134 13.22 13.2267C13.9066 12.54 14.14 11.5734 13.92 10.7C13.8133 10.24 13.5733 9.80671 13.22 9.45338C12.74 8.96671 12.1133 8.70671 11.4733 8.67338ZM12.8266 11.32C12.8266 11.46 12.7733 11.58 12.68 11.6734C12.5866 11.7667 12.4666 11.82 12.3266 11.82H11.8333V12.34C11.8333 12.48 11.78 12.6 11.6866 12.6934C11.5933 12.7867 11.4733 12.84 11.3333 12.84C11.06 12.84 10.8333 12.6134 10.8333 12.34V11.82H10.3333C10.06 11.82 9.83329 11.5934 9.83329 11.32C9.83329 11.0467 10.06 10.82 10.3333 10.82H10.8333V10.3467C10.8333 10.0734 11.06 9.84671 11.3333 9.84671C11.6066 9.84671 11.8333 10.0734 11.8333 10.3467V10.82H12.3266C12.6066 10.82 12.8266 11.0467 12.8266 11.32Z" fill="white"/>
<path d="M6.81999 6.71338C6.54666 6.71338 6.32666 6.93338 6.32666 7.20671C6.32666 7.48005 6.54666 7.70005 6.81999 7.70005C7.09333 7.70005 7.31333 7.48005 7.31333 7.20671C7.31333 6.93338 7.09333 6.71338 6.81999 6.71338Z" fill="white"/>
<path d="M3.17327 7.37341C2.89993 7.37341 2.67993 7.59341 2.67993 7.86675C2.67993 8.14008 2.89993 8.36008 3.17327 8.36008C3.4466 8.36008 3.6666 8.14008 3.6666 7.86675C3.6666 7.59341 3.4466 7.37341 3.17327 7.37341Z" fill="white"/>
<path d="M9.46 0H3.87333C3.68667 0 3.50667 0.00666663 3.33333 0.0333333C1.23333 0.226667 0 1.63333 0 3.87333V9.46C0 11.7 1.23333 13.1067 3.33333 13.3C3.50667 13.3267 3.68667 13.3333 3.87333 13.3333H7.66667C7.92667 13.3333 8.09333 13.04 7.99333 12.8C7.8 12.34 7.66667 11.8067 7.66667 11.3333C7.66667 9.31333 9.31333 7.66667 11.3333 7.66667C11.84 7.66667 12.3333 7.76667 12.7867 7.96667C13.0333 8.07333 13.3333 7.90667 13.3333 7.64V3.87333C13.3333 1.44667 11.8867 0 9.46 0ZM8.32 4.03333V7.20667C8.32 7.21333 8.31333 7.22 8.31333 7.23333C8.3 8.04667 7.64 8.70667 6.82 8.70667C5.99333 8.70667 5.32667 8.03333 5.32667 7.21333C5.32667 6.38667 6 5.72 6.82 5.72C6.99333 5.72 7.16 5.75333 7.32 5.81333V4.68667L4.67333 5.40667V7.87333C4.67333 7.88 4.66667 7.88667 4.66667 7.89333C4.65333 8.70667 3.99333 9.36 3.17333 9.36C2.34667 9.36 1.68 8.68667 1.68 7.86667C1.68 7.04667 2.35333 6.37333 3.17333 6.37333C3.34667 6.37333 3.51333 6.40667 3.66667 6.46667V3.86C3.66667 3.24 4.05333 2.74 4.64667 2.58L6.63333 2.03333C7.25333 1.86667 7.63333 2.03333 7.84667 2.19333C8.15333 2.42667 8.30667 2.80667 8.30667 3.31333V4.03333H8.32Z" fill="white"/>
</svg>
