<svg width="22" height="19" viewBox="0 0 22 19" fill="none" xmlns="http://www.w3.org/2000/svg">
<path d="M2.9632 0C2.76427 5.22443e-05 2.56987 0.0594309 2.40486 0.170545C2.23985 0.281658 2.11173 0.439458 2.03687 0.62377C1.96202 0.808082 1.94383 1.01053 1.98463 1.20523C2.02543 1.39994 2.12338 1.57805 2.26594 1.7168L4.04914 3.5C2.11727 5.0515 0.864489 6.95377 0.244453 8.07031C-0.0875468 8.66831 -0.0766405 9.38823 0.248359 9.99023C1.40336 12.1282 4.72397 17.0098 10.973 17.0098C13.0485 17.0098 14.779 16.4645 16.2152 15.666L18.2659 17.7168C18.3581 17.8128 18.4685 17.8894 18.5906 17.9422C18.7127 17.995 18.8441 18.0229 18.9772 18.0242C19.1102 18.0256 19.2422 18.0004 19.3654 17.9501C19.4886 17.8998 19.6005 17.8254 19.6945 17.7313C19.7886 17.6373 19.863 17.5254 19.9133 17.4022C19.9636 17.279 19.9888 17.147 19.9874 17.014C19.9861 16.8809 19.9582 16.7495 19.9054 16.6274C19.8526 16.5052 19.776 16.3949 19.68 16.3027L3.68 0.302734C3.58681 0.20694 3.47537 0.130795 3.35225 0.0787983C3.22914 0.0268015 3.09685 7.79052e-06 2.9632 0ZM10.973 1.00977C9.76097 1.00977 8.67877 1.20948 7.68977 1.52148L10.2503 4.08203C10.4873 4.04703 10.726 4.00977 10.973 4.00977C13.734 4.00977 15.973 6.24877 15.973 9.00977C15.973 9.25677 15.9357 9.49542 15.9007 9.73242L19.3304 13.1621C20.4044 11.9701 21.1905 10.761 21.6605 9.95703C22.0145 9.35303 22.013 8.61109 21.678 7.99609C20.509 5.84309 17.192 1.00977 10.973 1.00977ZM6.80695 6.25781L8.26984 7.7207C8.08113 8.1106 7.97297 8.54633 7.97297 9.00977C7.97297 10.6668 9.31597 12.0098 10.973 12.0098C11.4364 12.0098 11.8721 11.9016 12.262 11.7129L13.7269 13.1777C12.7333 13.8365 11.4936 14.1522 10.1722 13.9473C8.07419 13.6213 6.36147 11.9085 6.03547 9.81055C5.83064 8.48976 6.14873 7.25115 6.80695 6.25781Z" fill="white"/>
</svg>
