<svg width="20" height="16" viewBox="0 0 20 16" fill="none" xmlns="http://www.w3.org/2000/svg">
<path fill-rule="evenodd" clip-rule="evenodd" d="M3.08953 0.5C1.66207 0.5 0.504883 1.61929 0.504883 3V13C0.504883 14.3807 1.66207 15.5 3.08953 15.5H16.8743C18.3018 15.5 19.459 14.3807 19.459 13V3C19.459 1.61929 18.3018 0.5 16.8743 0.5H3.08953ZM5.36421 4.0265C4.99867 3.73187 4.45541 3.77964 4.15079 4.1332C3.84618 4.48676 3.89557 5.01224 4.2611 5.30687L8.3273 8.58439C9.28581 9.35699 10.6781 9.35699 11.6366 8.58439L15.7028 5.30687C16.0683 5.01224 16.1177 4.48676 15.8131 4.1332C15.5085 3.77964 14.9652 3.73187 14.5997 4.0265L10.5335 7.30402C10.214 7.56156 9.74991 7.56156 9.43041 7.30403L5.36421 4.0265Z" fill="white"/>
</svg>
