<svg width="4" height="13" viewBox="0 0 4 13" fill="none" xmlns="http://www.w3.org/2000/svg">
<path d="M1.68815 7.19338C2.06821 7.19338 2.3763 6.88529 2.3763 6.50523C2.3763 6.12517 2.06821 5.81708 1.68815 5.81708C1.3081 5.81708 1 6.12517 1 6.50523C1 6.88529 1.3081 7.19338 1.68815 7.19338Z" stroke="white" stroke-width="1.3763" stroke-linecap="round" stroke-linejoin="round"/>
<path d="M1.68815 2.3763C2.06821 2.3763 2.3763 2.06821 2.3763 1.68815C2.3763 1.3081 2.06821 1 1.68815 1C1.3081 1 1 1.3081 1 1.68815C1 2.06821 1.3081 2.3763 1.68815 2.3763Z" stroke="white" stroke-width="1.3763" stroke-linecap="round" stroke-linejoin="round"/>
<path d="M1.68815 12.0105C2.06821 12.0105 2.3763 11.7024 2.3763 11.3223C2.3763 10.9423 2.06821 10.6342 1.68815 10.6342C1.3081 10.6342 1 10.9423 1 11.3223C1 11.7024 1.3081 12.0105 1.68815 12.0105Z" stroke="white" stroke-width="1.3763" stroke-linecap="round" stroke-linejoin="round"/>
</svg>
