<svg width="14" height="14" viewBox="0 0 14 14" fill="none" xmlns="http://www.w3.org/2000/svg">
<path d="M7.00004 0.333313C10.6744 0.333313 13.6667 3.32415 13.6667 7.00384C13.6667 10.6758 10.6744 13.6666 7.00004 13.6666C3.32565 13.6666 0.333374 10.6758 0.333374 7.00384C0.333374 3.32415 3.32565 0.333313 7.00004 0.333313ZM6.24071 4.35325C6.09914 4.35325 5.964 4.38541 5.8353 4.44973C5.67443 4.53978 5.54573 4.68128 5.47494 4.84851C5.4299 4.96428 5.35911 5.31161 5.35911 5.31804C5.28833 5.69752 5.24972 6.31498 5.24972 6.99676C5.24972 7.64703 5.28833 8.23812 5.34624 8.62403C5.35268 8.63047 5.42346 9.0614 5.50068 9.20934C5.64225 9.47948 5.91896 9.64671 6.21497 9.64671H6.24071C6.43376 9.64028 6.83916 9.47305 6.83916 9.46661C7.52128 9.18361 8.86619 8.30244 9.40673 7.71714L9.44534 7.67855C9.51613 7.60779 9.60622 7.49845 9.62552 7.47272C9.72848 7.33765 9.77996 7.17042 9.77996 7.00384C9.77996 6.81667 9.72205 6.64301 9.61265 6.50151C9.58691 6.47578 9.49039 6.36644 9.4003 6.27639C8.87263 5.71038 7.49554 4.78419 6.77481 4.50119C6.66542 4.45681 6.38871 4.35968 6.24071 4.35325Z" fill="white"/>
</svg>
