<svg width="21" height="21" viewBox="0 0 21 21" fill="none" xmlns="http://www.w3.org/2000/svg">
<path d="M9 0C7.93913 0 6.92172 0.421427 6.17157 1.17157C5.42143 1.92172 5 2.93913 5 4C5 5.06087 5.42143 6.07828 6.17157 6.82843C6.92172 7.57857 7.93913 8 9 8C10.0609 8 11.0783 7.57857 11.8284 6.82843C12.5786 6.07828 13 5.06087 13 4C13 2.93913 12.5786 1.92172 11.8284 1.17157C11.0783 0.421427 10.0609 0 9 0ZM15 10C12.2 10 10 12.2 10 15C10 17.8 12.2 20 15 20C16 20 17.0008 19.6992 17.8008 19.1992L19.293 20.707C19.684 21.098 20.317 21.098 20.707 20.707C21.098 20.317 21.098 19.683 20.707 19.293L19.1992 17.8008C19.6992 17.0008 20 16 20 15C20 12.2 17.8 10 15 10ZM9.25195 11.0039C6.34795 10.9139 0 12.421 0 15.5V17C0 17.552 0.448 18 1 18H8.68359C8.25059 17.09 8 16.075 8 15C8 13.515 8.46591 12.1398 9.25391 11.0078L9.25195 11.0039ZM15 12C16.7 12 18 13.3 18 15C18 16.7 16.7 18 15 18C13.3 18 12 16.7 12 15C12 13.3 13.3 12 15 12Z" fill="white"/>
</svg>
