<svg width="18" height="20" viewBox="0 0 18 20" fill="none" xmlns="http://www.w3.org/2000/svg">
<path d="M8.98454 10.8007C11.983 10.8007 14.4137 8.38289 14.4137 5.40036C14.4137 2.41782 11.983 0 8.98454 0C5.98612 0 3.55542 2.41782 3.55542 5.40036C3.55542 8.38289 5.98612 10.8007 8.98454 10.8007Z" fill="white"/>
<path d="M16.9807 15.6228C16.4977 14.7331 15.3707 14.1815 13.6445 13.8434C12.8467 13.6936 12.0401 13.5955 11.2295 13.5498C9.74112 13.4338 8.24586 13.4338 6.75744 13.5498C5.94377 13.5934 5.13397 13.6915 4.33357 13.8434C2.58945 14.1548 1.46249 14.7331 0.988444 15.6228C0.802611 15.9705 0.707288 16.3589 0.711174 16.7527C0.712641 17.1441 0.810938 17.5291 0.997388 17.8737C1.48037 18.7634 2.60734 19.3328 4.33357 19.653C5.13046 19.8082 5.93751 19.9063 6.7485 19.9466C7.01683 19.9466 7.2941 19.9644 7.58031 20C8.03646 20 8.47473 20 8.94877 20C9.70903 20 10.4603 20 11.2117 19.92C12.0226 19.874 12.8295 19.7729 13.6266 19.6175C15.4154 19.315 16.4977 18.7278 16.9807 17.8381C17.3434 17.1437 17.3434 16.3172 16.9807 15.6228Z" fill="white"/>
</svg>
